<svg width="91" height="80" viewBox="0 0 91 80" fill="none" xmlns="http://www.w3.org/2000/svg">
<g opacity="0.5" clip-path="url(#clip0_1526_2010)">
<path d="M56.167 51.8149C55.9696 51.7883 55.7686 51.8096 55.5814 51.8772C55.3942 51.9447 55.2265 52.0563 55.0927 52.2024C54.9567 52.346 54.8569 52.5193 54.8015 52.7083C54.7462 52.8973 54.7368 53.0966 54.7742 53.2899C55.4719 56.9149 57.8202 61.8899 65.0294 64.9874C65.8838 65.3524 67.2033 65.6374 68.8767 65.9949C75.1405 67.3349 85.6156 69.5799 88.1889 79.0749C88.2321 79.2336 88.3064 79.3824 88.4077 79.5127C88.509 79.643 88.6352 79.7523 88.7792 79.8344C88.9232 79.9165 89.0822 79.9697 89.247 79.991C89.4118 80.0123 89.5792 80.0013 89.7397 79.9586C89.9002 79.9159 90.0506 79.8424 90.1824 79.7422C90.3142 79.6421 90.4247 79.5172 90.5077 79.3748C90.5906 79.2324 90.6444 79.0752 90.666 78.9122C90.6875 78.7492 90.6764 78.5836 90.6333 78.4249C87.6581 67.4574 75.7901 64.9149 69.4126 63.5499C67.9363 63.2324 66.6598 62.9599 66.0355 62.6899C61.7028 60.8299 58.9046 58.0699 57.6913 54.4749C69.7285 55.3599 75.1784 50.6174 75.4186 50.4024C75.5666 50.2698 75.6808 50.1044 75.7517 49.9197C75.8226 49.735 75.8483 49.5364 75.8266 49.34C75.8049 49.1436 75.7364 48.9551 75.6269 48.79C75.5173 48.6248 75.3696 48.4877 75.1961 48.3899C68.2498 44.4649 68.2498 30.9024 68.2498 25.7949C68.2498 11.5124 58.5229 0.189883 46.0534 0.0123828C45.9346 0.00847253 45.8158 0.00597235 45.697 0.00488281C33.0454 0.0748828 22.7498 11.4099 22.7498 25.2749C22.7498 30.3824 22.7498 43.9474 15.8035 47.8699C15.6244 47.9727 15.4734 48.1173 15.3637 48.291C15.254 48.4647 15.1888 48.6622 15.1739 48.8665C15.159 49.0708 15.1947 49.2755 15.278 49.463C15.3612 49.6505 15.4896 49.8151 15.6518 49.9424C16.0006 50.2099 23.7104 56.0449 33.1971 54.2724C31.9282 57.7174 29.1678 60.3674 24.9616 62.1749C24.3524 62.4374 23.1391 62.7249 21.7336 63.0549C15.3131 64.5649 3.35921 67.3774 0.366321 78.4224C0.323333 78.5811 0.312379 78.7467 0.334084 78.9096C0.355788 79.0725 0.409727 79.2296 0.49282 79.3719C0.660634 79.6593 0.937012 79.869 1.26115 79.9549C1.5853 80.0407 1.93065 79.9957 2.22124 79.8298C2.51184 79.6638 2.72386 79.3905 2.81068 79.0699C5.41177 69.4599 15.9981 66.9724 22.3201 65.4824C23.905 65.1099 25.1562 64.8149 25.9702 64.4674C33.1794 61.3699 35.5252 56.3949 36.2254 52.7699C36.2669 52.5575 36.2517 52.3381 36.1812 52.1333C36.1107 51.9286 35.9874 51.7455 35.8235 51.6024C35.6608 51.458 35.4628 51.358 35.2492 51.3124C35.0355 51.2668 34.8135 51.2771 34.6051 51.3424C27.7624 53.4724 21.4404 50.5424 18.6775 48.9174C25.2776 43.4524 25.2776 30.8749 25.2776 25.2749C25.2776 12.7824 34.4433 2.56738 45.8031 2.49988L46.0711 2.51488C57.2742 2.67238 65.722 12.6799 65.722 25.7949C65.722 31.3974 65.722 44.0024 72.3498 49.4674C70.0673 50.7574 64.8626 52.8449 56.167 51.8149Z" fill="#BF0D3E"/>
<g clip-path="url(#clip1_1526_2010)">
<path d="M57.0353 28.5716C57.0353 25.5406 55.82 22.6337 53.6567 20.4904C51.4934 18.3471 48.5594 17.1431 45.5001 17.1431C42.4407 17.1431 39.5067 18.3471 37.3434 20.4904C35.1802 22.6337 33.9648 25.5406 33.9648 28.5716C33.9648 31.6027 35.1802 34.5096 37.3434 36.6529C39.5067 38.7961 42.4407 40.0002 45.5001 40.0002C48.5594 40.0002 51.4934 38.7961 53.6567 36.6529C55.82 34.5096 57.0353 31.6027 57.0353 28.5716ZM54.7282 28.5716C54.7284 30.2826 54.244 31.9593 53.3301 33.4111C52.4162 34.8628 51.1095 36.0314 49.5586 36.7838C48.0076 37.5363 46.2746 37.8425 44.5567 37.6676C42.8389 37.4927 41.205 36.8437 39.8409 35.7945L52.7903 22.9648C54.0038 24.5122 54.7282 26.4596 54.7282 28.5716ZM51.1592 21.3488L38.2098 34.1785C36.8296 32.4194 36.1452 30.2216 36.2852 27.9979C36.4252 25.7741 37.38 23.6776 38.9702 22.1021C40.5603 20.5266 42.6764 19.5807 44.9209 19.442C47.1654 19.3032 49.3838 19.9813 51.1592 21.3488Z" fill="#041E42"/>
</g>
</g>
<defs>
<clipPath id="clip0_1526_2010">
<rect width="91" height="80" fill="white"/>
</clipPath>
<clipPath id="clip1_1526_2010">
<rect width="23.0704" height="22.8571" fill="white" transform="translate(33.9648 17.1431)"/>
</clipPath>
</defs>
</svg>
