<svg width="91" height="80" viewBox="0 0 91 80" fill="none" xmlns="http://www.w3.org/2000/svg">
<g opacity="0.5">
<path d="M1.25337 79.9576C1.57451 80.041 1.9157 79.9949 2.20298 79.8292C2.49025 79.6636 2.70046 79.3917 2.78805 79.0726C5.37092 69.4651 15.8679 66.9751 22.1421 65.4851C23.7143 65.1126 24.9556 64.8176 25.7631 64.4701C32.9099 61.3776 35.2395 56.4026 35.9366 52.7726C35.9781 52.5566 35.9616 52.3336 35.889 52.1259C35.8163 51.9183 35.69 51.7335 35.5229 51.5901C31.8015 48.3876 28.6619 43.5801 26.6809 38.0501C26.625 37.8915 26.5371 37.746 26.4226 37.6226C23.8021 34.7826 22.2975 31.7801 22.2975 29.3876C22.2975 27.9901 22.8266 27.0526 24.0178 26.3451C24.1962 26.2387 24.3453 26.0898 24.4517 25.9118C24.558 25.7337 24.6183 25.5321 24.6271 25.3251C25.1813 12.5901 34.2791 2.56507 45.4381 2.50007L45.7064 2.51757C56.9206 2.67257 65.9607 12.9126 66.2841 25.8276C66.2887 26.0041 66.3308 26.1777 66.4078 26.3367C66.4847 26.4957 66.5947 26.6367 66.7305 26.7501C67.5154 27.4126 67.8815 28.2526 67.8815 29.3926C67.8815 31.3951 66.8107 33.8576 64.8698 36.3226C64.7773 36.4412 64.7061 36.5748 64.6592 36.7176C62.6531 43.0576 59.0521 48.6551 54.7841 52.0801C54.6073 52.2224 54.4724 52.4098 54.3938 52.6224C54.3152 52.835 54.2959 53.0649 54.3377 53.2876C55.0348 56.9151 57.3644 61.8876 64.5112 64.9851C65.3563 65.3501 66.6678 65.6351 68.3304 65.9926C74.5418 67.3326 84.936 69.5801 87.4863 79.0726C87.5291 79.2311 87.6028 79.3798 87.7032 79.5099C87.8036 79.6401 87.9288 79.7493 88.0715 79.8312C88.2143 79.9132 88.3718 79.9663 88.5351 79.9875C88.6985 80.0088 88.8644 79.9978 89.0235 79.9551C89.1825 79.9124 89.3316 79.8389 89.4622 79.7388C89.5927 79.6387 89.7022 79.5139 89.7844 79.3716C89.8666 79.2293 89.9199 79.0722 89.9412 78.9094C89.9625 78.7466 89.9515 78.5811 89.9087 78.4226C86.9622 67.4551 75.1863 64.9126 68.862 63.5476C67.395 63.2301 66.1287 62.9576 65.5118 62.6876C60.8476 60.6676 57.9738 57.5901 56.9582 53.5251C61.2889 49.8176 64.9125 44.0976 66.9838 37.6826C69.183 34.8326 70.3917 31.8976 70.3917 29.3901C70.3917 27.7176 69.85 26.3226 68.7767 25.2326C68.1799 11.2226 58.1518 0.190068 45.7064 0.0125684L45.3328 0.00756836C33.113 0.0725684 23.0423 10.8151 22.1621 24.5826C20.5923 25.7326 19.7949 27.3451 19.7949 29.3926C19.7949 32.3501 21.4725 35.8876 24.409 39.1326C26.4376 44.6901 29.5822 49.5726 33.3261 52.9901C32.3156 57.0701 29.4393 60.1576 24.7651 62.1801C24.1607 62.4426 22.957 62.7301 21.5628 63.0601C15.1909 64.5701 3.33471 67.3826 0.36566 78.4276C0.279915 78.7478 0.325264 79.0889 0.491734 79.3758C0.658204 79.6628 0.932164 79.872 1.25337 79.9576Z" fill="#BF0D3E"/>
<g clip-path="url(#clip0_3471_2749)">
<path d="M56.0704 28.4286C56.0704 25.3975 54.8551 22.4906 52.6918 20.3474C50.5286 18.2041 47.5945 17 44.5352 17C41.4759 17 38.5419 18.2041 36.3786 20.3474C34.2153 22.4906 33 25.3975 33 28.4286C33 31.4596 34.2153 34.3665 36.3786 36.5098C38.5419 38.6531 41.4759 39.8571 44.5352 39.8571C47.5945 39.8571 50.5286 38.6531 52.6918 36.5098C54.8551 34.3665 56.0704 31.4596 56.0704 28.4286ZM53.7634 28.4286C53.7636 30.1395 53.2792 31.8162 52.3653 33.268C51.4514 34.7197 50.1447 35.8883 48.5937 36.6408C47.0427 37.3932 45.3098 37.6994 43.5919 37.5245C41.874 37.3497 40.2401 36.7007 38.876 35.6514L51.8255 22.8217C53.039 24.3691 53.7634 26.3166 53.7634 28.4286ZM50.1944 21.2057L37.245 34.0354C35.8647 32.2764 35.1803 30.0785 35.3203 27.8548C35.4604 25.6311 36.4151 23.5345 38.0053 21.959C39.5955 20.3836 41.7116 19.4376 43.9561 19.2989C46.2006 19.1602 48.4189 19.8383 50.1944 21.2057Z" fill="#041E42"/>
</g>
</g>
<defs>
<clipPath id="clip0_3471_2749">
<rect width="23.0704" height="22.8571" fill="white" transform="translate(33 17)"/>
</clipPath>
</defs>
</svg>
