<svg width="9" height="18" viewBox="0 0 9 18" fill="none" xmlns="http://www.w3.org/2000/svg">
<path d="M9 2.25C9 1.65326 8.76295 1.08097 8.34099 0.65901C7.91903 0.237053 7.34674 0 6.75 0H2.25C1.65326 0 1.08097 0.237053 0.659009 0.65901C0.237053 1.08097 0 1.65326 0 2.25V15.75C0 16.3467 0.237053 16.919 0.659009 17.341C1.08097 17.7629 1.65326 18 2.25 18H6.75C7.34674 18 7.91903 17.7629 8.34099 17.341C8.76295 16.919 9 16.3467 9 15.75V2.25ZM6.75 1.5C6.94891 1.5 7.13968 1.57902 7.28033 1.71967C7.42098 1.86032 7.5 2.05109 7.5 2.25V15.75C7.5 15.9489 7.42098 16.1397 7.28033 16.2803C7.13968 16.421 6.94891 16.5 6.75 16.5H2.25C2.05109 16.5 1.86032 16.421 1.71967 16.2803C1.57902 16.1397 1.5 15.9489 1.5 15.75V13.5H3.75C3.94891 13.5 4.13968 13.421 4.28033 13.2803C4.42098 13.1397 4.5 12.9489 4.5 12.75C4.5 12.5511 4.42098 12.3603 4.28033 12.2197C4.13968 12.079 3.94891 12 3.75 12H1.5V9.75H4.5C4.69891 9.75 4.88968 9.67098 5.03033 9.53033C5.17098 9.38968 5.25 9.19891 5.25 9C5.25 8.80109 5.17098 8.61032 5.03033 8.46967C4.88968 8.32902 4.69891 8.25 4.5 8.25H1.5V6H3.75C3.94891 6 4.13968 5.92098 4.28033 5.78033C4.42098 5.63968 4.5 5.44891 4.5 5.25C4.5 5.05109 4.42098 4.86032 4.28033 4.71967C4.13968 4.57902 3.94891 4.5 3.75 4.5H1.5V2.25C1.5 2.05109 1.57902 1.86032 1.71967 1.71967C1.86032 1.57902 2.05109 1.5 2.25 1.5H6.75Z" fill="#606A8C"/>
</svg>
