<svg width="115" height="80" viewBox="0 0 115 80" fill="none" xmlns="http://www.w3.org/2000/svg">
<g opacity="0.5">
<path d="M48.9168 14.8838C48.9168 22.3377 43.148 28.2675 36.1679 28.2675C29.1878 28.2675 23.4189 22.3377 23.4189 14.8838C23.4189 7.42983 29.1878 1.5 36.1679 1.5C43.148 1.5 48.9168 7.42983 48.9168 14.8838Z" stroke="#BF0D3E" stroke-width="3"/>
<path d="M90.5711 14.8838C90.5711 22.3377 84.8023 28.2675 77.8222 28.2675C70.8421 28.2675 65.0732 22.3377 65.0732 14.8838C65.0732 7.42983 70.8421 1.5 77.8222 1.5C84.8023 1.5 90.5711 7.42983 90.5711 14.8838Z" stroke="#BF0D3E" stroke-width="3"/>
<mask id="path-3-inside-1_1925_1892" fill="white">
<path fill-rule="evenodd" clip-rule="evenodd" d="M0 71.8477C3.79365 52.0086 18.6173 37.2095 36.3258 37.2095C54.3298 37.2095 69.3519 52.5068 72.8322 72.8453C63.3789 77.2998 50.9878 80.0003 37.422 80.0003C22.8714 80.0003 9.67216 76.8934 0 71.8477Z"/>
</mask>
<path d="M0 71.8477L-2.94661 71.2843L-3.36565 73.4756L-1.38755 74.5076L0 71.8477ZM72.8322 72.8453L74.111 75.5591L76.1739 74.5871L75.7892 72.3393L72.8322 72.8453ZM2.94661 72.4112C6.54885 53.5731 20.4396 40.2095 36.3258 40.2095V34.2095C16.7949 34.2095 1.03846 50.4441 -2.94661 71.2843L2.94661 72.4112ZM36.3258 40.2095C52.4749 40.2095 66.5686 54.0277 69.8752 73.3513L75.7892 72.3393C72.1352 50.9858 56.1847 34.2095 36.3258 34.2095V40.2095ZM71.5535 70.1315C62.5602 74.3692 50.6173 77.0003 37.422 77.0003V83.0003C51.3583 83.0003 64.1976 80.2304 74.111 75.5591L71.5535 70.1315ZM37.422 77.0003C23.2619 77.0003 10.5561 73.9708 1.38755 69.1879L-1.38755 74.5076C8.78822 79.8159 22.4809 83.0003 37.422 83.0003V77.0003Z" fill="#BF0D3E" mask="url(#path-3-inside-1_1925_1892)"/>
<mask id="path-5-inside-2_1925_1892" fill="white">
<path fill-rule="evenodd" clip-rule="evenodd" d="M41.6514 71.8472C45.445 52.0081 60.2686 37.209 77.9771 37.209C95.9812 37.209 111.003 52.5063 114.484 72.8448C105.03 77.2993 92.6392 79.9998 79.0734 79.9998C64.5227 79.9998 51.3235 76.8929 41.6514 71.8472Z"/>
</mask>
<path d="M41.6514 71.8472L38.7048 71.2838L38.2857 73.4752L40.2638 74.5071L41.6514 71.8472ZM114.484 72.8448L115.762 75.5586L117.825 74.5866L117.441 72.3388L114.484 72.8448ZM44.598 72.4107C48.2002 53.5726 62.091 40.209 77.9771 40.209V34.209C58.4463 34.209 42.6898 50.4437 38.7048 71.2838L44.598 72.4107ZM77.9771 40.209C94.1263 40.209 108.22 54.0273 111.527 73.3508L117.441 72.3388C113.787 50.9853 97.836 34.209 77.9771 34.209V40.209ZM113.205 70.131C104.212 74.3687 92.2687 76.9998 79.0734 76.9998V82.9998C93.0097 82.9998 105.849 80.2299 115.762 75.5586L113.205 70.131ZM79.0734 76.9998C64.9132 76.9998 52.2075 73.9704 43.0389 69.1874L40.2638 74.5071C50.4396 79.8155 64.1322 82.9998 79.0734 82.9998V76.9998Z" fill="#BF0D3E" mask="url(#path-5-inside-2_1925_1892)"/>
</g>
</svg>
