<svg width="32" height="23" viewBox="0 0 32 23" fill="none" xmlns="http://www.w3.org/2000/svg">
<path d="M13.6935 4.37228C13.6935 6.24188 12.2505 7.7011 10.5386 7.7011C8.82674 7.7011 7.38379 6.24188 7.38379 4.37228C7.38379 2.50268 8.82674 1.04346 10.5386 1.04346C12.2505 1.04346 13.6935 2.50268 13.6935 4.37228Z" stroke="white" stroke-width="1.5"/>
<path d="M25.2075 4.37228C25.2075 6.29296 23.7239 7.8011 21.9527 7.8011C20.1815 7.8011 18.6979 6.29296 18.6979 4.37228C18.6979 2.4516 20.1815 0.943457 21.9527 0.943457C23.7239 0.943457 25.2075 2.4516 25.2075 4.37228Z" stroke="white" stroke-width="1.3"/>
<mask id="path-3-inside-1_5024_404" fill="white">
<path fill-rule="evenodd" clip-rule="evenodd" d="M0.626465 19.9829C1.6661 14.5461 5.72844 10.4905 10.5814 10.4905C15.5153 10.4905 19.632 14.6827 20.5858 20.2564C17.9951 21.4771 14.5995 22.2171 10.8819 22.2171C6.89429 22.2171 3.27708 21.3657 0.626465 19.9829Z"/>
</mask>
<path d="M0.626465 19.9829L-0.846841 19.7012L-1.05636 20.7969L-0.0673198 21.3128L0.626465 19.9829ZM20.5858 20.2564L21.2251 21.6133L22.2566 21.1273L22.0643 20.0034L20.5858 20.2564ZM2.09977 20.2646C3.0437 15.3283 6.63962 11.9905 10.5814 11.9905V8.99048C4.81725 8.99048 0.288504 13.7639 -0.846841 19.7012L2.09977 20.2646ZM10.5814 11.9905C14.5879 11.9905 18.2404 15.4431 19.1073 20.5094L22.0643 20.0034C21.0237 13.9222 16.4427 8.99048 10.5814 8.99048V11.9905ZM19.9464 18.8995C17.5858 20.0118 14.4142 20.7171 10.8819 20.7171V23.7171C14.7847 23.7171 18.4045 22.9424 21.2251 21.6133L19.9464 18.8995ZM10.8819 20.7171C7.08954 20.7171 3.71906 19.9044 1.32025 18.653L-0.0673198 21.3128C2.83511 22.8269 6.69904 23.7171 10.8819 23.7171V20.7171Z" fill="white" mask="url(#path-3-inside-1_5024_404)"/>
<mask id="path-5-inside-2_5024_404" fill="white">
<path fill-rule="evenodd" clip-rule="evenodd" d="M12.0405 19.983C13.0801 14.5462 17.1425 10.4905 21.9954 10.4905C26.9293 10.4905 31.0461 14.6826 31.9998 20.2562C29.4092 21.477 26.0134 22.2171 22.2957 22.2171C18.3082 22.2171 14.6911 21.3657 12.0405 19.983Z"/>
</mask>
<path d="M12.0405 19.983L10.7637 19.7389L10.5821 20.6885L11.4393 21.1356L12.0405 19.983ZM31.9998 20.2562L32.554 21.4322L33.4479 21.011L33.2812 20.037L31.9998 20.2562ZM13.3174 20.2272C14.274 15.2241 17.9322 11.7905 21.9954 11.7905V9.19048C16.3528 9.19048 11.8862 13.8682 10.7637 19.7389L13.3174 20.2272ZM21.9954 11.7905C26.1256 11.7905 29.8399 15.3417 30.7185 20.4755L33.2812 20.037C32.2522 14.0235 27.7331 9.19048 21.9954 9.19048V11.7905ZM31.4457 19.0803C29.0544 20.2071 25.8528 20.9171 22.2957 20.9171V23.5171C26.1739 23.5171 29.764 22.7469 32.554 21.4322L31.4457 19.0803ZM22.2957 20.9171C18.4774 20.9171 15.0742 20.0993 12.6418 18.8304L11.4393 21.1356C14.3081 22.6322 18.139 23.5171 22.2957 23.5171V20.9171Z" fill="white" mask="url(#path-5-inside-2_5024_404)"/>
</svg>
