<svg width="107" height="84" viewBox="0 0 107 84" fill="none" xmlns="http://www.w3.org/2000/svg">
<g opacity="0.7">
<path d="M2 82.0001V77.2942C2 68.5577 5.47058 60.1789 11.6482 54.0013C17.8259 47.8236 26.2046 44.353 34.9412 44.353C43.6777 44.353 52.0564 47.8236 58.2341 54.0013C64.4118 60.1789 67.8823 68.5577 67.8823 77.2942V82.0001" stroke="#BF0D3E" stroke-width="2.5" stroke-linecap="round"/>
<path d="M58.4707 53.7645C58.4707 47.5241 60.9497 41.5393 65.3623 37.1267C69.7749 32.7141 75.7597 30.2351 82.0001 30.2351C85.09 30.2351 88.1497 30.8437 91.0044 32.0262C93.8592 33.2086 96.453 34.9418 98.6379 37.1267C100.823 39.3116 102.556 41.9055 103.738 44.7602C104.921 47.6149 105.53 50.6746 105.53 53.7645V56.1175" stroke="#BF0D3E" stroke-width="2.5" stroke-linecap="round"/>
<path d="M34.9407 44.3529C39.933 44.3529 44.7209 42.3698 48.251 38.8397C51.7811 35.3096 53.7642 30.5217 53.7642 25.5294C53.7642 20.5371 51.7811 15.7493 48.251 12.2192C44.7209 8.68907 39.933 6.70588 34.9407 6.70588C29.9484 6.70588 25.1606 8.68907 21.6305 12.2192C18.1004 15.7493 16.1172 20.5371 16.1172 25.5294C16.1172 30.5217 18.1004 35.3096 21.6305 38.8397C25.1606 42.3698 29.9484 44.3529 34.9407 44.3529ZM81.9995 30.2353C85.7438 30.2353 89.3346 28.7479 91.9822 26.1003C94.6298 23.4528 96.1172 19.8619 96.1172 16.1176C96.1172 12.3734 94.6298 8.78254 91.9822 6.13496C89.3346 3.48739 85.7438 2 81.9995 2C78.2553 2 74.6644 3.48739 72.0169 6.13496C69.3693 8.78254 67.8819 12.3734 67.8819 16.1176C67.8819 19.8619 69.3693 23.4528 72.0169 26.1003C74.6644 28.7479 78.2553 30.2353 81.9995 30.2353Z" stroke="#BF0D3E" stroke-width="2.5" stroke-linecap="round" stroke-linejoin="round"/>
</g>
</svg>
