<svg width="32" height="23" viewBox="0 0 32 23" fill="none" xmlns="http://www.w3.org/2000/svg">
<path d="M13.6935 4.37228C13.6935 6.24188 12.2505 7.7011 10.5386 7.7011C8.82674 7.7011 7.38379 6.24188 7.38379 4.37228C7.38379 2.50268 8.82674 1.04346 10.5386 1.04346C12.2505 1.04346 13.6935 2.50268 13.6935 4.37228Z" fill="white" stroke="white" stroke-width="1.5"/>
<path d="M25.2085 4.37228C25.2085 6.29296 23.7249 7.8011 21.9537 7.8011C20.1825 7.8011 18.6988 6.29296 18.6988 4.37228C18.6988 2.4516 20.1825 0.943457 21.9537 0.943457C23.7249 0.943457 25.2085 2.4516 25.2085 4.37228Z" fill="white" stroke="white" stroke-width="1.3"/>
<mask id="path-3-inside-1_5024_517" fill="white">
<path fill-rule="evenodd" clip-rule="evenodd" d="M0.626953 19.9829C1.66659 14.5461 5.72893 10.4905 10.5818 10.4905C15.5158 10.4905 19.6325 14.6827 20.5863 20.2564C17.9956 21.4771 14.6 22.2171 10.8824 22.2171C6.89478 22.2171 3.27757 21.3657 0.626953 19.9829Z"/>
</mask>
<path fill-rule="evenodd" clip-rule="evenodd" d="M0.626953 19.9829C1.66659 14.5461 5.72893 10.4905 10.5818 10.4905C15.5158 10.4905 19.6325 14.6827 20.5863 20.2564C17.9956 21.4771 14.6 22.2171 10.8824 22.2171C6.89478 22.2171 3.27757 21.3657 0.626953 19.9829Z" fill="white"/>
<path d="M0.626953 19.9829L-0.846352 19.7012L-1.05587 20.7969L-0.0668315 21.3128L0.626953 19.9829ZM20.5863 20.2564L21.2256 21.6133L22.2571 21.1273L22.0648 20.0034L20.5863 20.2564ZM2.10026 20.2646C3.04419 15.3283 6.64011 11.9905 10.5818 11.9905V8.99048C4.81774 8.99048 0.288993 13.7639 -0.846352 19.7012L2.10026 20.2646ZM10.5818 11.9905C14.5883 11.9905 18.2408 15.4431 19.1078 20.5094L22.0648 20.0034C21.0242 13.9222 16.4432 8.99048 10.5818 8.99048V11.9905ZM19.9469 18.8995C17.5863 20.0118 14.4147 20.7171 10.8824 20.7171V23.7171C14.7852 23.7171 18.405 22.9424 21.2256 21.6133L19.9469 18.8995ZM10.8824 20.7171C7.09003 20.7171 3.71954 19.9044 1.32074 18.653L-0.0668315 21.3128C2.83559 22.8269 6.69953 23.7171 10.8824 23.7171V20.7171Z" fill="white" mask="url(#path-3-inside-1_5024_517)"/>
<mask id="path-5-inside-2_5024_517" fill="white">
<path fill-rule="evenodd" clip-rule="evenodd" d="M12.041 19.983C13.0806 14.5462 17.143 10.4905 21.9959 10.4905C26.9298 10.4905 31.0465 14.6826 32.0003 20.2562C29.4097 21.477 26.0139 22.2171 22.2962 22.2171C18.3087 22.2171 14.6916 21.3657 12.041 19.983Z"/>
</mask>
<path fill-rule="evenodd" clip-rule="evenodd" d="M12.041 19.983C13.0806 14.5462 17.143 10.4905 21.9959 10.4905C26.9298 10.4905 31.0465 14.6826 32.0003 20.2562C29.4097 21.477 26.0139 22.2171 22.2962 22.2171C18.3087 22.2171 14.6916 21.3657 12.041 19.983Z" fill="white"/>
<path d="M12.041 19.983L10.7641 19.7389L10.5826 20.6885L11.4398 21.1356L12.041 19.983ZM32.0003 20.2562L32.5545 21.4322L33.4484 21.011L33.2817 20.037L32.0003 20.2562ZM13.3179 20.2272C14.2745 15.2241 17.9327 11.7905 21.9959 11.7905V9.19048C16.3533 9.19048 11.8867 13.8682 10.7641 19.7389L13.3179 20.2272ZM21.9959 11.7905C26.1261 11.7905 29.8404 15.3417 30.719 20.4755L33.2817 20.037C32.2527 14.0235 27.7336 9.19048 21.9959 9.19048V11.7905ZM31.4462 19.0803C29.0549 20.2071 25.8533 20.9171 22.2962 20.9171V23.5171C26.1744 23.5171 29.7644 22.7469 32.5545 21.4322L31.4462 19.0803ZM22.2962 20.9171C18.4779 20.9171 15.0746 20.0993 12.6423 18.8304L11.4398 21.1356C14.3086 22.6322 18.1395 23.5171 22.2962 23.5171V20.9171Z" fill="white" mask="url(#path-5-inside-2_5024_517)"/>
</svg>
