<svg width="20" height="24" viewBox="0 0 20 24" fill="none" xmlns="http://www.w3.org/2000/svg">
<path d="M9.6 16.8C11.64 14.96 12.95 13.6652 13.53 12.9156C14.11 12.166 14.4 11.4208 14.4 10.68C14.4 9.96 14.14 9.34 13.62 8.82C13.1 8.3 12.48 8.04 11.76 8.04C11.34 8.04 10.9348 8.1252 10.5444 8.2956C10.154 8.466 9.8392 8.7008 9.6 9C9.36 8.7 9.05 8.4648 8.67 8.2944C8.29 8.124 7.88 8.0392 7.44 8.04C6.72 8.04 6.1 8.3 5.58 8.82C5.06 9.34 4.8 9.96 4.8 10.68C4.8 11.06 4.85 11.41 4.95 11.73C5.05 12.05 5.27 12.4252 5.61 12.8556C5.95 13.2852 6.4348 13.81 7.0644 14.43C7.694 15.05 8.5392 15.84 9.6 16.8ZM9.6 24C6.82 23.3 4.5248 21.7052 2.7144 19.2156C0.904001 16.726 -0.00079947 13.9608 5.30035e-07 10.92V3.6L9.6 0L19.2 3.6V10.92C19.2 13.96 18.2948 16.7252 16.4844 19.2156C14.674 21.706 12.3792 23.3008 9.6 24Z" fill="#BF0D3E"/>
</svg>
