<svg width="78" height="78" viewBox="0 0 78 78" fill="none" xmlns="http://www.w3.org/2000/svg">
<path opacity="0.8" d="M50.2162 37.3528C49.2793 38.1283 48.4775 38.9941 47.8108 39.9501C46.3153 39.1925 44.7568 38.6334 43.1351 38.2726C41.5135 37.9119 39.8559 37.7225 38.1622 37.7045C36.2162 37.7045 34.3604 37.948 32.5946 38.435C30.8288 38.922 29.1712 39.6074 27.6216 40.4912C26.0721 41.375 24.6847 42.4481 23.4595 43.7107C22.2342 44.9733 21.1622 46.3711 20.2432 47.9043C19.3243 49.4374 18.6396 51.1058 18.1892 52.9095C17.7387 54.7131 17.4955 56.5709 17.4595 58.4828H14C14 55.8495 14.3874 53.3153 15.1622 50.8803C15.9369 48.4454 17.0541 46.2178 18.5135 44.1977C19.973 42.1776 21.7117 40.41 23.7297 38.8949C25.7477 37.3798 28.036 36.2164 30.5946 35.4048C29.6216 34.7555 28.7568 34.0069 28 33.1592C27.2432 32.3115 26.5946 31.3916 26.0541 30.3996C25.5135 29.4076 25.0991 28.3614 24.8108 27.2612C24.5225 26.1609 24.3784 25.0246 24.3784 23.8522C24.3784 21.9403 24.7387 20.1457 25.4595 18.4683C26.1802 16.7908 27.1712 15.3299 28.4324 14.0853C29.6937 12.8408 31.1622 11.8488 32.8378 11.1093C34.5135 10.3698 36.3063 10 38.2162 10C40.1261 10 41.9189 10.3607 43.5946 11.0822C45.2703 11.8037 46.7297 12.7957 47.973 14.0583C49.2162 15.3208 50.2072 16.7908 50.9459 18.4683C51.6847 20.1457 52.0541 21.9403 52.0541 23.8522C52.0541 25.0246 51.9099 26.1609 51.6216 27.2612C51.3333 28.3614 50.9279 29.4166 50.4054 30.4266C49.8829 31.4367 49.2252 32.3566 48.4324 33.1863C47.6396 34.016 46.7658 34.7645 45.8108 35.4318C46.5856 35.6844 47.3333 35.9639 48.0541 36.2706C48.7748 36.5772 49.4955 36.9379 50.2162 37.3528ZM27.8378 23.8522C27.8378 25.2952 28.1081 26.6389 28.6486 27.8835C29.1892 29.128 29.9279 30.2282 30.8649 31.1842C31.8018 32.1401 32.9009 32.8887 34.1622 33.4298C35.4234 33.9709 36.7748 34.2414 38.2162 34.2414C39.6396 34.2414 40.982 33.9709 42.2432 33.4298C43.5045 32.8887 44.6036 32.1492 45.5405 31.2112C46.4775 30.2733 47.2252 29.1731 47.7838 27.9105C48.3423 26.6479 48.6126 25.2952 48.5946 23.8522C48.5946 22.4273 48.3243 21.0836 47.7838 19.821C47.2432 18.5584 46.5045 17.4582 45.5676 16.5203C44.6306 15.5824 43.5225 14.8339 42.2432 14.2747C40.964 13.7156 39.6216 13.445 38.2162 13.4631C36.7748 13.4631 35.4324 13.7336 34.1892 14.2747C32.9459 14.8158 31.8468 15.5553 30.8919 16.4932C29.9369 17.4311 29.1892 18.5404 28.6486 19.821C28.1081 21.1016 27.8378 22.4454 27.8378 23.8522ZM57.2973 37.6774C58.4865 37.6774 59.6126 37.9029 60.6757 38.3538C61.7387 38.8047 62.6577 39.427 63.4324 40.2206C64.2072 41.0142 64.8288 41.9341 65.2973 42.9802C65.7658 44.0264 66 45.1537 66 46.3621C66 47.5526 65.7748 48.6708 65.3243 49.717C64.8739 50.7631 64.2523 51.683 63.4595 52.4766C62.6667 53.2702 61.7387 53.8925 60.6757 54.3434C59.6126 54.7943 58.4865 55.0288 57.2973 55.0468C55.5495 55.0468 53.955 54.5598 52.5135 53.5858L44.6216 61.486C44.2793 61.8287 43.8739 62 43.4054 62C42.9369 62 42.5315 61.8287 42.1892 61.486C41.8468 61.1433 41.6757 60.7374 41.6757 60.2685C41.6757 59.7995 41.8468 59.3937 42.1892 59.051L50.0811 51.1509C49.1081 49.7079 48.6216 48.1117 48.6216 46.3621C48.6216 45.1717 48.8468 44.0534 49.2973 43.0073C49.7477 41.9612 50.3694 41.0413 51.1622 40.2477C51.955 39.454 52.8739 38.8318 53.9189 38.3809C54.964 37.9299 56.0901 37.6955 57.2973 37.6774ZM57.2973 51.5838C58.018 51.5838 58.6937 51.4485 59.3243 51.1779C59.955 50.9074 60.5045 50.5376 60.973 50.0687C61.4414 49.5997 61.8198 49.0406 62.1081 48.3913C62.3964 47.7419 62.5405 47.0656 62.5405 46.3621C62.5405 45.6407 62.4054 44.9643 62.1351 44.333C61.8649 43.7017 61.4865 43.1516 61 42.6826C60.5135 42.2137 59.964 41.8349 59.3514 41.5463C58.7387 41.2577 58.0541 41.1224 57.2973 41.1405C56.5766 41.1405 55.9009 41.2758 55.2703 41.5463C54.6396 41.8169 54.0901 42.1956 53.6216 42.6826C53.1532 43.1696 52.7748 43.7197 52.4865 44.333C52.1982 44.9462 52.0631 45.6226 52.0811 46.3621C52.0811 47.0836 52.2162 47.76 52.4865 48.3913C52.7568 49.0225 53.1261 49.5727 53.5946 50.0416C54.0631 50.5106 54.6216 50.8894 55.2703 51.1779C55.9189 51.4665 56.5946 51.6018 57.2973 51.5838Z" fill="#606A8C"/>
<path d="M39 78C17.4629 78 0 60.5371 0 39C0 17.4629 17.4629 0 39 0C60.5371 0 78 17.4629 78 39C78 60.5371 60.5371 78 39 78ZM64.115 18.5598L18.6033 64.0714C16.8884 62.6786 15.3214 61.1116 13.9286 59.3967L59.4402 13.885C53.8688 9.34084 46.7478 6.61607 39 6.61607C21.1192 6.61607 6.61607 21.1192 6.61607 39C6.61607 56.8808 21.1192 71.3839 39 71.3839C56.8808 71.3839 71.3839 56.8808 71.3839 39C71.3839 31.2522 68.6592 24.1312 64.115 18.5598Z" fill="#BF0D3E"/>
</svg>
