<svg width="93" height="96" viewBox="0 0 93 96" fill="none" xmlns="http://www.w3.org/2000/svg">
<path d="M88.6114 37.7903H86.7483L86.7499 36.9263C86.7422 35.9117 86.3442 34.9388 85.6382 34.2086C84.9321 33.4785 83.972 33.0469 82.9562 33.003H82.9289L82.8247 33.0014C81.8129 33.0014 80.8637 33.395 80.1534 34.1102C79.8038 34.4604 79.527 34.8759 79.3388 35.3331C79.1506 35.7903 79.0547 36.28 79.0567 36.7742L79.0535 51.4671C79.0535 52.7727 79.6435 53.9295 80.5591 54.7295C79.6381 56.6069 78.7225 58.4869 77.8124 60.3695C76.8526 58.3879 75.8878 56.4087 74.9182 54.4319C74.232 53.0319 72.4073 51.5311 69.3399 51.5311H60.6654L60.5965 51.7967H60.0641C59.554 51.6112 59.1142 51.2721 58.8054 50.8265C58.4967 50.3808 58.3342 49.8505 58.3405 49.3087V48.5391C64.5521 46.3807 71.9968 40.9711 73.3389 33.8974C75.582 33.491 77.9423 32.0334 77.9423 27.7134C77.9423 23.7358 76.3918 22.6046 75.1106 22.3374C74.9535 6.72777 70.977 0.110152 53.365 0.00455179C35.5783 -0.203449 30.8626 6.70857 30.6718 22.5182C29.5446 22.9998 28.411 24.3134 28.411 27.7134C28.411 32.0318 30.7696 33.4894 33.0112 33.8974C34.3485 40.9535 41.7579 46.3551 47.9615 48.5247V49.3087C47.9615 50.4751 47.2368 51.4495 46.241 51.7967H45.7007L45.6317 51.5311H36.279C33.3656 51.5311 31.8391 53.1311 31.0198 53.9903L22.9466 62.4223V41.2159C22.9466 40.2031 22.1128 39.3775 21.0978 39.3775H6.31587C5.2977 39.3775 4.46713 40.2031 4.46713 41.2159V60.9519C4.26321 60.9223 4.05748 60.9068 3.85142 60.9055C1.98984 60.9055 0 61.9023 0 64.6943V79.5136C0.00382127 80.7035 0.480527 81.8433 1.32552 82.6828C2.17051 83.5224 3.31477 83.9932 4.50722 83.992H11.3955C11.8765 83.992 12.3303 83.8944 12.7648 83.7584C16.4367 83.464 17.9022 81.968 18.9845 80.8368L19.0871 80.728L20.9423 78.7904L35.3763 63.7183L35.3699 91.3712V92.3248L36.21 92.7808C36.457 92.9088 42.271 96 53.1486 96C64.0069 96 69.8354 92.912 70.0807 92.7808L70.9225 92.3248V68.7055L71.2737 69.4271C71.907 70.7679 73.9914 73.3295 77.3169 73.3327H77.7114C78.8434 73.3071 82.5168 72.9615 84.271 69.5791L84.3463 69.4847L84.4025 69.3167L90.9604 55.8287L91.5008 54.7199C92.4131 53.9199 93 52.7631 93 51.4639V42.1503C92.9953 40.992 92.5309 39.8828 91.7083 39.0656C90.8857 38.2484 89.7722 37.7898 88.6114 37.7903ZM18.8177 41.9919C18.8177 41.7391 19.023 41.5327 19.2795 41.5327H20.2031C20.458 41.5327 20.6649 41.7391 20.6649 41.9919V42.9103C20.6645 43.0322 20.6156 43.149 20.5291 43.2351C20.4425 43.3211 20.3253 43.3695 20.2031 43.3695H19.2795C19.219 43.3697 19.159 43.358 19.1029 43.335C19.0469 43.312 18.996 43.2782 18.9531 43.2355C18.9102 43.1929 18.8762 43.1422 18.8529 43.0864C18.8297 43.0305 18.8177 42.9707 18.8177 42.9103V41.9919ZM14.2833 79.512C14.2811 80.2747 13.9759 81.0054 13.4345 81.5438C12.8932 82.0823 12.1599 82.3844 11.3955 82.384H4.50722C3.74259 82.3848 3.00887 82.0829 2.46715 81.5444C1.92543 81.0059 1.61997 80.2749 1.61785 79.512V64.6927C1.61785 63.0015 2.68573 62.5647 3.6574 62.5183L3.69749 64.2191H11.3955C12.9877 64.2191 14.2833 65.5103 14.2833 67.0943V79.512ZM13.7076 48.5663C13.4654 48.5667 13.2254 48.5195 13.0014 48.4273C12.7774 48.3351 12.5738 48.1998 12.4023 48.0291C12.2307 47.8583 12.0946 47.6555 12.0016 47.4323C11.9087 47.209 11.8607 46.9696 11.8605 46.7279C11.8605 46.239 12.0551 45.7702 12.4015 45.4245C12.7479 45.0789 13.2178 44.8847 13.7076 44.8847C14.1975 44.8847 14.6674 45.0789 15.0138 45.4245C15.3602 45.7702 15.5548 46.239 15.5548 46.7279C15.5548 47.7439 14.7258 48.5663 13.7076 48.5663ZM17.9198 79.616C17.2608 80.304 16.5826 81.0384 15.3848 81.5504C15.7039 80.9344 15.9011 80.2496 15.9011 79.5136V76.128H21.0978C21.17 76.128 21.2309 76.0944 21.3014 76.088C20.2271 77.2064 19.1015 78.3839 17.9198 79.616ZM34.7221 32.9646L34.6259 32.2382L33.8963 32.171C31.3725 31.9358 30.2485 30.5614 30.2485 27.7134C30.2485 25.3054 30.8177 24.0862 31.9433 24.0862L32.1069 24.091C32.2881 25.0606 32.4725 25.6478 32.6745 25.9662C33.2774 27.1982 34.4447 27.7406 34.5762 27.7982L36.0882 28.467L35.8557 26.8302C35.6903 25.4683 35.6356 24.0953 35.6921 22.7246C36.2341 14.6942 36.7825 14.0206 38.3298 14.0206C39.1058 14.0206 40.1833 14.2318 41.551 14.499C44.2207 15.0238 47.8813 15.7406 53.1774 15.7406C58.4768 15.7406 62.1342 15.0238 64.8071 14.499C66.1716 14.2318 67.2475 14.0206 68.0251 14.0206C69.5724 14.0206 70.1176 14.6958 70.6579 22.699C70.715 24.0787 70.6608 25.4608 70.496 26.8318L70.2619 28.4702L71.7771 27.7998C71.907 27.7422 73.0695 27.1998 73.6355 26.043C73.8696 25.6574 74.0556 25.0734 74.2432 24.091C75.5147 24.0126 76.1064 25.1934 76.1064 27.7134C76.1064 30.5598 74.9792 31.9358 72.4554 32.171L71.7242 32.2382L71.628 32.9646C70.4527 42.0047 58.0807 47.7391 53.1758 47.7391C48.2694 47.7375 35.8974 42.0031 34.7221 32.9646ZM46.5168 53.4031L46.7782 53.3119C48.4538 52.7279 49.5778 51.1183 49.5778 49.3087V49.0207C50.8926 49.3727 52.124 49.5695 53.1758 49.5695C54.2133 49.5695 55.427 49.3759 56.7242 49.0319V49.3087C56.7242 51.1183 57.8514 52.7279 59.5302 53.3119L59.79 53.4031H60.1251C59.2737 55.5567 55.5617 57.0159 53.1486 57.0159C50.729 57.0159 47.0171 55.5567 46.1689 53.4031H46.5168ZM82.9049 68.7055C82.9022 68.7102 82.8989 68.7145 82.8952 68.7183C81.5869 71.4127 78.7199 71.7055 77.7114 71.7279H77.3186C74.2111 71.7247 72.7664 68.8063 72.7312 68.7311C71.9888 67.1935 70.6515 64.4463 69.3079 61.6815L69.3046 91.3696C69.3046 91.3696 63.7215 94.3952 53.1502 94.3952C42.5612 94.3952 36.9925 91.3696 36.9925 91.3696L36.9989 59.6975C32.3088 64.5966 27.6178 69.4947 22.9257 74.3919C22.9273 74.3583 22.9466 74.3263 22.9466 74.2911V64.7535C25.5842 61.9999 28.6146 58.8351 32.1534 55.1343C32.9343 54.3183 34.0262 53.1343 36.279 53.1343H44.3731C45.1716 56.2815 49.6868 58.6191 53.1502 58.6191C56.6152 58.6191 61.1224 56.2815 61.9257 53.1343H69.3431C71.5975 53.1343 72.9829 54.1439 73.4655 55.1343C74.9267 58.1142 76.3762 61.0999 77.814 64.0911C79.1822 61.2395 80.5622 58.3937 81.954 55.5535C82.4222 55.7215 82.9193 55.8287 83.4436 55.8287H88.613C88.8135 55.8287 89.0043 55.7951 89.1967 55.7695L82.9049 68.7055ZM91.3821 51.4655C91.3821 52.9807 90.1331 54.2223 88.6098 54.2223H83.442C81.9188 54.2223 80.6697 52.9823 80.6697 51.4655L80.6729 36.7726C80.6708 36.4827 80.7274 36.1954 80.8394 35.9279C80.9515 35.6604 81.1165 35.4183 81.3247 35.216C81.5329 35.0138 81.7799 34.8557 82.0509 34.7512C82.3219 34.6467 82.6113 34.5979 82.9017 34.6078C83.5 34.6368 84.0646 34.8932 84.4796 35.3242C84.8946 35.7553 85.1286 36.3285 85.1336 36.9263L85.132 39.3951H88.613C90.1347 39.3951 91.3854 40.6351 91.3854 42.1519V51.4655H91.3821Z" fill="#606A8C"/>
</svg>
