<svg width="24" height="24" viewBox="0 0 24 24" fill="none" xmlns="http://www.w3.org/2000/svg">
<path d="M11.705 9.01453C12.3205 8.95374 12.9398 9.08469 13.478 9.38945C14.0162 9.69421 14.4471 10.1579 14.7116 10.717C14.9762 11.2761 15.0614 11.9033 14.9557 12.5127C14.85 13.1221 14.5585 13.684 14.1211 14.1213C13.6838 14.5587 13.1219 14.8502 12.5125 14.9559C11.9031 15.0616 11.2759 14.9763 10.7168 14.7118C10.1577 14.4473 9.69403 14.0164 9.38927 13.4782C9.08451 12.94 8.95356 12.3207 9.01435 11.7052C9.08366 11.0151 9.3894 10.3703 9.87977 9.87995C10.3701 9.38958 11.015 9.08384 11.705 9.01453ZM4.48154 12C4.48346 12.3261 4.50742 12.6517 4.55326 12.9745L2.43404 14.6367C2.34176 14.7132 2.27958 14.8199 2.25856 14.9379C2.23753 15.056 2.25902 15.1776 2.3192 15.2812L4.32404 18.75C4.38492 18.8527 4.48009 18.9305 4.59278 18.9699C4.70546 19.0093 4.82841 19.0076 4.93998 18.9652L7.04467 18.1177C7.16073 18.0714 7.28645 18.0547 7.41055 18.0691C7.53465 18.0834 7.65326 18.1283 7.75576 18.1997C8.07697 18.4209 8.4145 18.6174 8.76545 18.7875C8.87578 18.8411 8.97121 18.9211 9.04332 19.0203C9.11542 19.1196 9.16198 19.2351 9.17888 19.3566L9.49435 21.6014C9.51507 21.72 9.57632 21.8276 9.66763 21.906C9.75895 21.9844 9.87465 22.0287 9.99498 22.0312H14.0047C14.123 22.0292 14.2371 21.9869 14.3282 21.9113C14.4193 21.8357 14.4819 21.7314 14.5058 21.6155L14.8208 19.3739C14.8384 19.2511 14.8862 19.1345 14.9598 19.0346C15.0334 18.9346 15.1306 18.8544 15.2426 18.8011C15.5932 18.6319 15.9296 18.4349 16.2486 18.2119C16.3507 18.1408 16.4689 18.0963 16.5926 18.0823C16.7162 18.0683 16.8414 18.0853 16.9569 18.1317L19.0611 18.9788C19.1726 19.0212 19.2955 19.023 19.4082 18.9837C19.5209 18.9444 19.6161 18.8666 19.677 18.7641L21.6819 15.2953C21.7421 15.1917 21.7637 15.07 21.7426 14.952C21.7216 14.834 21.6594 14.7272 21.567 14.6508L19.7759 13.2445C19.6778 13.1666 19.6007 13.0655 19.5516 12.9502C19.5024 12.835 19.4829 12.7093 19.4947 12.5845C19.5115 12.3891 19.5219 12.1941 19.5219 11.9986C19.5219 11.8031 19.512 11.6109 19.4947 11.4197C19.4842 11.2957 19.5047 11.1711 19.5544 11.057C19.604 10.9429 19.6813 10.843 19.7792 10.7662L21.5694 9.36C21.6602 9.28317 21.7211 9.17681 21.7415 9.05957C21.7618 8.94232 21.7402 8.82167 21.6804 8.71875L19.6756 5.25C19.6147 5.14734 19.5195 5.06946 19.4069 5.0301C19.2942 4.99074 19.1712 4.99242 19.0597 5.03484L16.955 5.88234C16.8389 5.92856 16.7132 5.94525 16.5891 5.93094C16.465 5.91662 16.3464 5.87174 16.2439 5.80031C15.9227 5.57912 15.5851 5.38262 15.2342 5.2125C15.1239 5.15887 15.0284 5.07891 14.9563 4.97966C14.8842 4.88041 14.8377 4.76494 14.8208 4.64344L14.5053 2.39859C14.4846 2.28004 14.4233 2.17236 14.332 2.09396C14.2407 2.01555 14.125 1.9713 14.0047 1.96875H9.99498C9.87664 1.9708 9.76253 2.01309 9.67144 2.08867C9.58035 2.16425 9.51773 2.2686 9.49389 2.38453L9.17888 4.62609C9.16119 4.74894 9.11343 4.86551 9.03983 4.96544C8.96623 5.06537 8.86908 5.14557 8.75701 5.19891C8.40648 5.3681 8.07009 5.56514 7.75107 5.78813C7.64893 5.85919 7.53071 5.90373 7.40706 5.91772C7.28342 5.93172 7.15823 5.91473 7.04279 5.86828L4.93857 5.02125C4.82706 4.97879 4.70414 4.97704 4.59146 5.01631C4.47879 5.05558 4.38359 5.13336 4.32263 5.23594L2.31779 8.70469C2.25751 8.80832 2.23598 8.92999 2.25701 9.04802C2.27804 9.16604 2.34027 9.27278 2.43263 9.34922L4.22373 10.7555C4.32228 10.8331 4.39985 10.9342 4.44938 11.0494C4.49891 11.1647 4.51883 11.2905 4.50732 11.4155C4.49185 11.6095 4.48154 11.8045 4.48154 12Z" fill="white" stroke="white" stroke-width="1.5" stroke-linecap="round" stroke-linejoin="round"/>
</svg>
