<svg width="90" height="90" viewBox="0 0 90 90" fill="none" xmlns="http://www.w3.org/2000/svg">
<path opacity="0.5" d="M41.25 41.88C40.1213 40.8525 38.8763 39.9675 37.5112 39.285C37.5638 34.1587 41.7412 30.0038 46.875 30.0038H69.375C73.4737 30.0038 76.9313 32.6662 78.2025 36.3413C76.2 35.4787 74.0888 34.815 71.8988 34.38C71.1375 33.9938 70.2862 33.7575 69.3787 33.7575H46.8787C43.7775 33.7575 41.2537 36.2812 41.2537 39.3825V41.8875L41.25 41.88ZM30 45H9.375C4.2075 45 0 49.2075 0 54.375V67.5H3.75V54.375C3.75 51.2738 6.27375 48.75 9.375 48.75H30C33.1012 48.75 35.625 51.2738 35.625 54.375V54.9375C36.2775 53.1075 37.0838 51.3563 38.0438 49.6987C36.4275 46.905 33.4538 45 30 45ZM90 65.625C90 79.065 79.065 90 65.625 90C52.185 90 41.25 79.065 41.25 65.625C41.25 52.185 52.185 41.25 65.625 41.25C79.065 41.25 90 52.185 90 65.625ZM86.25 65.625C86.25 54.255 76.995 45 65.625 45C54.255 45 45 54.255 45 65.625C45 76.995 54.255 86.25 65.625 86.25C76.995 86.25 86.25 76.995 86.25 65.625ZM63.6712 71.07C63.36 71.3775 63.1388 71.415 62.7713 71.0437L55.8113 64.2938L53.205 66.99L60.1425 73.7137C60.9712 74.5462 62.07 75 63.2363 75C64.4025 75 65.505 74.5462 66.3187 73.7287L79.2788 60.9825L76.65 58.3088L63.6712 71.07ZM9.375 26.25C9.375 20.0475 14.4225 15 20.625 15C26.8275 15 31.875 20.0475 31.875 26.25C31.875 32.4525 26.8275 37.5 20.625 37.5C14.4225 37.5 9.375 32.4525 9.375 26.25ZM13.125 26.25C13.125 30.3862 16.4888 33.75 20.625 33.75C24.7612 33.75 28.125 30.3862 28.125 26.25C28.125 22.1138 24.7612 18.75 20.625 18.75C16.4888 18.75 13.125 22.1138 13.125 26.25ZM46.875 11.25C46.875 5.0475 51.9225 0 58.125 0C64.3275 0 69.375 5.0475 69.375 11.25C69.375 17.4525 64.3275 22.5 58.125 22.5C51.9225 22.5 46.875 17.4525 46.875 11.25ZM50.625 11.25C50.625 15.3863 53.9888 18.75 58.125 18.75C62.2612 18.75 65.625 15.3863 65.625 11.25C65.625 7.11375 62.2612 3.75 58.125 3.75C53.9888 3.75 50.625 7.11375 50.625 11.25Z" fill="#BF0D3E"/>
</svg>
