<svg width="91" height="80" viewBox="0 0 91 80" fill="none" xmlns="http://www.w3.org/2000/svg">
<g opacity="0.5">
<path d="M55.8347 51.82C55.6391 51.7933 55.4399 51.8147 55.2544 51.8822C55.069 51.9498 54.9028 52.0614 54.7703 52.2075C54.6355 52.3511 54.5366 52.5244 54.4818 52.7135C54.4269 52.9025 54.4176 53.1017 54.4547 53.295C55.1459 56.9202 57.4726 61.8954 64.6155 64.993C65.462 65.358 66.7694 65.643 68.4274 66.0005C74.6336 67.3406 85.0123 69.5857 87.5619 79.0811C87.6046 79.2398 87.6783 79.3886 87.7786 79.5189C87.879 79.6493 88.0041 79.7586 88.1468 79.8406C88.2894 79.9227 88.4469 79.9759 88.6102 79.9972C88.7735 80.0186 88.9394 80.0076 89.0984 79.9649C89.2574 79.9222 89.4064 79.8487 89.537 79.7485C89.6675 79.6483 89.7771 79.5234 89.8593 79.381C89.9415 79.2386 89.9948 79.0814 90.0161 78.9184C90.0375 78.7554 90.0265 78.5898 89.9837 78.4311C87.0359 67.4631 75.2772 64.9205 68.9583 63.5554C67.4957 63.2379 66.2309 62.9654 65.6123 62.6954C61.3196 60.8353 58.5471 58.0752 57.3449 54.4801C69.2714 55.3651 74.6711 50.6224 74.9091 50.4074C75.0557 50.2748 75.1689 50.1094 75.2391 49.9247C75.3094 49.74 75.3348 49.5413 75.3133 49.345C75.2918 49.1486 75.224 48.9601 75.1154 48.7949C75.0068 48.6298 74.8606 48.4927 74.6887 48.3948C67.8063 44.4697 67.8063 30.9066 67.8063 25.7989C67.8063 11.5158 58.1689 0.19282 45.8141 0.0153128C45.6964 0.0114024 45.5787 0.00890209 45.461 0.0078125C32.9259 0.0778154 22.725 11.4133 22.725 25.2789C22.725 30.3866 22.725 43.9521 15.8426 47.8748C15.6652 47.9777 15.5157 48.1222 15.4069 48.2959C15.2982 48.4696 15.2337 48.6672 15.2189 48.8715C15.204 49.0757 15.2394 49.2805 15.322 49.468C15.4045 49.6555 15.5316 49.8201 15.6924 49.9474C16.038 50.2149 23.6767 56.0501 33.0762 54.2776C31.8189 57.7227 29.084 60.3728 24.9165 62.1804C24.3129 62.4429 23.1107 62.7304 21.7182 63.0604C15.3567 64.5705 3.51291 67.3831 0.547565 78.4286C0.504973 78.5873 0.49412 78.7529 0.515625 78.9158C0.53713 79.0787 0.590572 79.2358 0.6729 79.3781C0.839169 79.6656 1.113 79.8753 1.43416 79.9611C1.75532 80.047 2.0975 80.002 2.38542 79.836C2.67333 79.67 2.88341 79.3967 2.96943 79.0761C5.54657 69.4657 16.0355 66.9781 22.2993 65.488C23.8696 65.1155 25.1093 64.8205 25.9158 64.473C33.0586 61.3754 35.3828 56.4002 36.0766 52.775C36.1178 52.5626 36.1027 52.3432 36.0328 52.1384C35.963 51.9337 35.8408 51.7506 35.6784 51.6075C35.5172 51.463 35.3211 51.3631 35.1094 51.3175C34.8976 51.2719 34.6777 51.2822 34.4712 51.3474C27.6915 53.4775 21.4277 50.5474 18.6903 48.9223C25.2295 43.4571 25.2295 30.8791 25.2295 25.2789C25.2295 12.7858 34.3109 2.57042 45.5662 2.50292L45.8317 2.51792C56.9317 2.67542 65.3017 12.6833 65.3017 25.7989C65.3017 31.4016 65.3017 44.0071 71.8686 49.4724C69.607 50.7624 64.4502 52.85 55.8347 51.82Z" fill="#BF0D3E"/>
<rect x="31" y="19" width="28" height="25" rx="10" fill="#041E42"/>
<path d="M45.4007 26.8818L43.9743 29.9146L40.7344 30.404L43.0815 32.7942L42.5204 36.1179L45.4007 34.5184L48.2816 36.1179L47.7247 32.7942L50.0677 30.404L46.8457 29.9146L45.4007 26.8818Z" fill="#FEE440" stroke="#FEE440" stroke-width="2" stroke-linejoin="round"/>
</g>
</svg>
