<svg width="216" height="28" viewBox="0 0 216 28" fill="none" xmlns="http://www.w3.org/2000/svg">
<path d="M214.89 27.2274H210.503C210.189 27.2274 209.954 27.147 209.797 26.9862C209.64 26.8254 209.562 26.5824 209.562 26.2608V17.4757C209.562 17.2767 209.519 17.1351 209.435 17.047C209.351 16.9609 209.2 16.9169 208.982 16.9169H200.604C200.386 16.9169 200.242 16.9609 200.17 17.047C200.097 17.1351 200.061 17.2767 200.061 17.4757V26.2608C200.061 26.6092 199.982 26.8561 199.825 27.0054C199.668 27.1546 199.419 27.2293 199.083 27.2293H194.694C194.38 27.2293 194.145 27.1489 193.988 26.9881C193.831 26.8273 193.752 26.5843 193.752 26.2627V2.14108C193.752 1.79466 193.831 1.54584 193.988 1.39655C194.145 1.24726 194.38 1.17261 194.694 1.17261H199.083C199.421 1.17261 199.668 1.24726 199.825 1.39655C199.982 1.54584 200.061 1.79466 200.061 2.14108V10.4056C200.061 10.6046 200.097 10.7462 200.17 10.8343C200.242 10.9223 200.388 10.9644 200.604 10.9644H208.982C209.2 10.9644 209.349 10.9223 209.435 10.8343C209.519 10.7481 209.562 10.6046 209.562 10.4056V2.14108C209.562 1.79466 209.64 1.54584 209.797 1.39655C209.954 1.24726 210.189 1.17261 210.503 1.17261H214.89C215.543 1.17261 215.87 1.49608 215.87 2.14108V26.2627C215.87 26.9039 215.543 27.2274 214.89 27.2274Z" fill="#041E42"/>
<path d="M21.4861 22.0371C20.5062 23.7865 19.1339 25.1033 17.3711 25.9837C15.6064 26.8641 13.5642 27.3062 11.2426 27.3062C8.9937 27.3062 7.02997 26.8833 5.34952 26.0411C3.66906 25.1971 2.358 23.9071 1.41441 22.1692C0.470831 20.4332 0 18.2609 0 15.6541V1.7319C0 1.38548 0.0784687 1.13666 0.235413 0.98737C0.392358 0.838081 0.627776 0.763428 0.941665 0.763428H5.33038C5.66915 0.763428 5.91605 0.838081 6.07299 0.98737C6.22994 1.13666 6.30841 1.38548 6.30841 1.7319V15.1335C6.30841 17.1431 6.74288 18.6819 7.61374 19.7499C8.48459 20.8179 9.76503 21.35 11.457 21.35C13.1259 21.35 14.4064 20.816 15.3002 19.7499C16.194 18.6839 16.6419 17.145 16.6419 15.1335V1.7319C16.6419 1.38548 16.7204 1.13666 16.8773 0.98737C17.0343 0.838081 17.2697 0.763428 17.5836 0.763428H21.9723C22.311 0.763428 22.5579 0.838081 22.7149 0.98737C22.8718 1.13666 22.9503 1.38548 22.9503 1.7319V15.5794C22.9541 18.1345 22.4642 20.2877 21.4861 22.0371Z" fill="#0D3EBF"/>
<path d="M48.8099 3.47912C49.1008 3.70305 49.2444 3.95187 49.2444 4.22365C49.2444 4.47246 49.1602 4.72128 48.9898 4.96818L47.0318 8.17024C46.8136 8.51858 46.584 8.69083 46.3428 8.69083C46.1495 8.69083 45.9198 8.59131 45.6538 8.39226C44.7102 7.67261 43.7685 7.12139 42.825 6.73668C41.8814 6.35197 40.9033 6.15866 39.887 6.15866C38.9205 6.15866 38.1587 6.35197 37.6018 6.73668C37.0448 7.12139 36.7673 7.62476 36.7673 8.24488C36.7673 8.71763 36.9127 9.09467 37.2017 9.37985C37.4927 9.66503 37.9271 9.91958 38.5071 10.1435C39.087 10.3674 39.933 10.6163 41.045 10.8881C42.9302 11.3608 44.4767 11.9369 45.6863 12.6202C46.894 13.3035 47.8012 14.1533 48.4061 15.1696C49.0109 16.1878 49.3133 17.4281 49.3133 18.8922C49.3133 20.6301 48.896 22.1307 48.0615 23.3958C47.2271 24.6609 46.0423 25.6294 44.5073 26.2993C42.9723 26.9692 41.2019 27.3041 39.1942 27.3041C37.3568 27.3041 35.6648 27.0247 34.1164 26.4658C32.5699 25.9069 31.1785 25.1317 29.9459 24.1384C29.5842 23.8398 29.4023 23.5566 29.4023 23.2829C29.4023 23.036 29.498 22.7623 29.6933 22.4637L31.5785 19.3745C31.7967 19.0013 32.0379 18.8157 32.3039 18.8157C32.4723 18.8157 32.702 18.9267 32.9929 19.1506C33.8638 19.8454 34.8418 20.3966 35.9309 20.8062C37.0199 21.2158 38.107 21.4206 39.1942 21.4206C40.354 21.4206 41.244 21.2292 41.8603 20.8426C42.4766 20.4579 42.7848 19.943 42.7848 19.298C42.7848 18.8521 42.6393 18.4788 42.3503 18.1822C42.0594 17.8836 41.6 17.6175 40.9722 17.3821C40.3425 17.1467 39.4238 16.8787 38.2161 16.5821C36.4266 16.1361 34.9528 15.5907 33.7911 14.9437C32.6312 14.2987 31.7469 13.4604 31.144 12.4307C30.5392 11.401 30.2368 10.1282 30.2368 8.61426C30.2368 6.8783 30.6483 5.3816 31.4694 4.12795C32.2905 2.87431 33.4331 1.91924 34.8973 1.26084C36.3596 0.604352 38.0343 0.275146 39.9196 0.275146C43.2613 0.27706 46.2222 1.34505 48.8099 3.47912Z" fill="white"/>
<path d="M61.7557 25.6293C61.5394 26.102 61.3079 26.4178 61.0667 26.5786C60.8255 26.7394 60.4734 26.8198 60.0159 26.8198H55.5909C55.0588 26.8198 54.7927 26.6456 54.7927 26.2992C54.7927 26.0753 54.854 25.8532 54.9746 25.6293L66.5425 1.98997C66.8813 1.27032 67.1703 0.774595 67.4115 0.500899C67.6526 0.227203 67.9187 0.0913086 68.2096 0.0913086C68.5005 0.0913086 68.7589 0.227203 68.9886 0.500899C69.2183 0.774595 69.5149 1.27032 69.8766 1.98997L81.5174 25.6293C81.6379 25.8532 81.6992 26.0638 81.6992 26.2628C81.6992 26.6341 81.4217 26.8217 80.8647 26.8217H76.2233C75.764 26.8217 75.4195 26.7413 75.1898 26.5805C74.9601 26.4198 74.7362 26.104 74.518 25.6312L68.0986 12.0804L61.7557 25.6293Z" fill="#FF002E"/>
<path d="M103.949 0.985049C104.106 0.83576 104.342 0.761107 104.655 0.761107H109.042C109.695 0.761107 110.022 1.08458 110.022 1.72958V25.8512C110.022 26.8197 109.731 27.3039 109.151 27.3039C108.91 27.3039 108.65 27.2101 108.372 27.0245C108.095 26.8388 107.725 26.523 107.266 26.0752L94.211 13.4928V25.8512C94.211 26.1996 94.1325 26.4465 93.9756 26.5958C93.8186 26.7451 93.5698 26.8197 93.233 26.8197H88.8443C88.5304 26.8197 88.2949 26.7393 88.138 26.5785C87.9811 26.4178 87.9026 26.1747 87.9026 25.8532V1.7315C87.9026 0.763034 88.1935 0.278809 88.7734 0.278809C89.0146 0.278809 89.2749 0.372585 89.5524 0.558239C89.8299 0.743894 90.1993 1.0616 90.6587 1.50756L103.714 14.0899V1.7315C103.712 1.38316 103.79 1.13434 103.949 0.985049Z" fill="#041E42"/>
<path d="M125.163 26.5962C125.006 26.7455 124.758 26.8201 124.421 26.8201H120.032C119.718 26.8201 119.483 26.7397 119.326 26.5789C119.169 26.4182 119.09 26.1751 119.09 25.8536V1.7319C119.09 1.38548 119.169 1.13666 119.326 0.98737C119.483 0.838081 119.718 0.763428 120.032 0.763428H124.421C124.759 0.763428 125.006 0.838081 125.163 0.98737C125.32 1.13666 125.399 1.38548 125.399 1.7319V25.8536C125.399 26.2 125.32 26.4488 125.163 26.5962Z" fill="#041E42"/>
<path d="M140.538 26.5962C140.381 26.7455 140.133 26.8201 139.796 26.8201H135.407C135.093 26.8201 134.858 26.7397 134.701 26.5789C134.544 26.4182 134.465 26.1751 134.465 25.8536V1.7319C134.465 1.38548 134.544 1.13666 134.701 0.98737C134.858 0.838081 135.093 0.763428 135.407 0.763428H139.796C140.134 0.763428 140.381 0.838081 140.538 0.98737C140.695 1.13666 140.774 1.38548 140.774 1.7319V25.8536C140.774 26.2 140.695 26.4488 140.538 26.5962ZM150.076 0.9491C150.305 0.824692 150.65 0.763428 151.109 0.763428H156.223C156.73 0.763428 156.985 0.937616 156.985 1.28404C156.985 1.43333 156.912 1.61897 156.767 1.8429L148.353 13.4205L157.129 25.7425C157.297 25.9416 157.383 26.1406 157.383 26.3378C157.383 26.4871 157.31 26.6038 157.165 26.6919C157.019 26.7799 156.826 26.822 156.585 26.822H151.327C150.843 26.822 150.487 26.7608 150.257 26.6364C150.028 26.512 149.779 26.2517 149.515 25.8555L141.717 14.5018C141.499 14.1554 141.39 13.8683 141.39 13.6463C141.39 13.3994 141.511 13.1008 141.752 12.7525L149.331 1.77017C149.597 1.34527 149.846 1.07351 150.076 0.9491Z" fill="#041E42"/>
<path d="M167.826 25.6293C167.607 26.102 167.378 26.4178 167.136 26.5786C166.895 26.7394 166.543 26.8198 166.086 26.8198H161.661C161.129 26.8198 160.863 26.6456 160.863 26.2992C160.863 26.0753 160.924 25.8532 161.044 25.6293L172.612 1.98997C172.951 1.27032 173.24 0.774595 173.483 0.500899C173.724 0.227203 173.99 0.0913086 174.281 0.0913086C174.572 0.0913086 174.831 0.227203 175.06 0.500899C175.29 0.774595 175.587 1.27032 175.948 1.98997L187.589 25.6293C187.71 25.8532 187.771 26.0638 187.771 26.2628C187.771 26.6341 187.493 26.8217 186.936 26.8217H182.295C181.836 26.8217 181.491 26.7413 181.262 26.5805C181.032 26.4198 180.808 26.104 180.59 25.6312L174.17 12.0804L167.826 25.6293Z" fill="#041E42"/>
</svg>
