<svg width="27" height="19" viewBox="0 0 27 19" fill="none" xmlns="http://www.w3.org/2000/svg">
<g filter="url(#filter0_d_1120_4221)">
<g clip-path="url(#clip0_1120_4221)">
<mask id="mask0_1120_4221" style="mask-type:luminance" maskUnits="userSpaceOnUse" x="3" y="-1" width="21" height="16">
<rect x="3.33887" y="-0.344727" width="20" height="15" fill="white"/>
</mask>
<g mask="url(#mask0_1120_4221)">
<path fill-rule="evenodd" clip-rule="evenodd" d="M3.33887 -0.344727H23.3389V14.6553H3.33887V-0.344727Z" fill="#E31D1C"/>
<path fill-rule="evenodd" clip-rule="evenodd" d="M3.33887 0.905273V2.15527H23.3389V0.905273H3.33887ZM3.33887 3.40527V4.65527H23.3389V3.40527H3.33887ZM3.33887 7.15527V5.90527H23.3389V7.15527H3.33887ZM3.33887 8.40527V9.65527H23.3389V8.40527H3.33887ZM3.33887 12.1553V10.9053H23.3389V12.1553H3.33887ZM3.33887 14.6553V13.4053H23.3389V14.6553H3.33887Z" fill="#F7FCFF"/>
<rect x="3.33887" y="-0.344727" width="11.25" height="8.75" fill="#2E42A5"/>
<path fill-rule="evenodd" clip-rule="evenodd" d="M4.63887 2.37246L5.30127 1.91104L5.8151 2.28096H5.52417L6.11251 2.80133L5.91379 3.53096H5.60256L5.30035 2.86084L5.04262 3.53096H4.27417L4.86251 4.05133L4.63887 4.87246L5.30127 4.41104L5.8151 4.78096H5.52417L6.11251 5.30133L5.91379 6.03096H5.60256L5.30035 5.36084L5.04262 6.03096H4.27417L4.86251 6.55133L4.63887 7.37246L5.30127 6.91104L5.94219 7.37246L5.74292 6.55133L6.25763 6.03096H6.02023L6.55127 5.66104L7.0651 6.03096H6.77417L7.36251 6.55133L7.13887 7.37246L7.80127 6.91104L8.44219 7.37246L8.24292 6.55133L8.75764 6.03096H8.52023L9.05127 5.66104L9.5651 6.03096H9.27417L9.8625 6.55133L9.63887 7.37246L10.3013 6.91104L10.9422 7.37246L10.7429 6.55133L11.2576 6.03096H11.0202L11.5513 5.66104L12.0651 6.03096H11.7742L12.3625 6.55133L12.1389 7.37246L12.8013 6.91104L13.4422 7.37246L13.2429 6.55133L13.7576 6.03096H13.1026L12.8003 5.36084L12.5426 6.03096H12.17L11.9929 5.30133L12.5076 4.78096H12.2702L12.8013 4.41104L13.4422 4.87246L13.2429 4.05133L13.7576 3.53096H13.1026L12.8003 2.86084L12.5426 3.53096H12.17L11.9929 2.80133L12.5076 2.28096H12.2702L12.8013 1.91104L13.4422 2.37246L13.2429 1.55133L13.7576 1.03096H13.1026L12.8003 0.36084L12.5426 1.03096H11.7742L12.3625 1.55133L12.1638 2.28096H11.8526L11.5503 1.61084L11.2926 2.28096H10.92L10.7429 1.55133L11.2576 1.03096H10.6026L10.3003 0.36084L10.0426 1.03096H9.27417L9.8625 1.55133L9.66379 2.28096H9.35256L9.05035 1.61084L8.79262 2.28096H8.41999L8.24292 1.55133L8.75764 1.03096H8.10256L7.80035 0.36084L7.54262 1.03096H6.77417L7.36251 1.55133L7.16379 2.28096H6.85256L6.55035 1.61084L6.29262 2.28096H5.91999L5.74292 1.55133L6.25763 1.03096H5.60256L5.30035 0.36084L5.04262 1.03096H4.27417L4.86251 1.55133L4.63887 2.37246ZM12.1638 4.78096L12.3625 4.05133L11.7742 3.53096H12.0651L11.5513 3.16104L11.0202 3.53096H11.2576L10.7429 4.05133L10.92 4.78096H11.2926L11.5503 4.11084L11.8526 4.78096H12.1638ZM10.8151 4.78096L10.3013 4.41104L9.77023 4.78096H10.0076L9.49292 5.30133L9.66999 6.03096H10.0426L10.3003 5.36084L10.6026 6.03096H10.9138L11.1125 5.30133L10.5242 4.78096H10.8151ZM8.6125 5.30133L8.41379 6.03096H8.10256L7.80035 5.36084L7.54262 6.03096H7.16999L6.99292 5.30133L7.50763 4.78096H7.27023L7.80127 4.41104L8.3151 4.78096H8.02417L8.6125 5.30133ZM8.79262 4.78096H8.41999L8.24292 4.05133L8.75764 3.53096H8.52023L9.05127 3.16104L9.5651 3.53096H9.27417L9.8625 4.05133L9.66379 4.78096H9.35256L9.05035 4.11084L8.79262 4.78096ZM7.16379 4.78096L7.36251 4.05133L6.77417 3.53096H7.0651L6.55127 3.16104L6.02023 3.53096H6.25763L5.74292 4.05133L5.91999 4.78096H6.29262L6.55035 4.11084L6.85256 4.78096H7.16379ZM11.1125 2.80133L10.9138 3.53096H10.6026L10.3003 2.86084L10.0426 3.53096H9.66999L9.49292 2.80133L10.0076 2.28096H9.77023L10.3013 1.91104L10.8151 2.28096H10.5242L11.1125 2.80133ZM8.3151 2.28096L7.80127 1.91104L7.27023 2.28096H7.50763L6.99292 2.80133L7.16999 3.53096H7.54262L7.80035 2.86084L8.10256 3.53096H8.41379L8.6125 2.80133L8.02417 2.28096H8.3151Z" fill="#F7FCFF"/>
</g>
<rect x="3.33887" y="1.65527" width="20.339" height="11.8966" fill="url(#paint0_linear_1120_4221)" style="mix-blend-mode:overlay"/>
</g>
<rect x="3.83887" y="2.15527" width="19.339" height="10.8966" rx="1" stroke="black" stroke-opacity="0.1" style="mix-blend-mode:multiply"/>
</g>
<defs>
<filter id="filter0_d_1120_4221" x="0.338867" y="0.655273" width="26.3389" height="17.8965" filterUnits="userSpaceOnUse" color-interpolation-filters="sRGB">
<feFlood flood-opacity="0" result="BackgroundImageFix"/>
<feColorMatrix in="SourceAlpha" type="matrix" values="0 0 0 0 0 0 0 0 0 0 0 0 0 0 0 0 0 0 127 0" result="hardAlpha"/>
<feOffset dy="2"/>
<feGaussianBlur stdDeviation="1.5"/>
<feColorMatrix type="matrix" values="0 0 0 0 0 0 0 0 0 0 0 0 0 0 0 0 0 0 0.1 0"/>
<feBlend mode="normal" in2="BackgroundImageFix" result="effect1_dropShadow_1120_4221"/>
<feBlend mode="normal" in="SourceGraphic" in2="effect1_dropShadow_1120_4221" result="shape"/>
</filter>
<linearGradient id="paint0_linear_1120_4221" x1="13.5084" y1="1.65527" x2="13.5084" y2="13.5518" gradientUnits="userSpaceOnUse">
<stop stop-color="white" stop-opacity="0.7"/>
<stop offset="1" stop-opacity="0.3"/>
</linearGradient>
<clipPath id="clip0_1120_4221">
<rect x="3.33887" y="1.65527" width="20.339" height="11.8966" rx="1.5" fill="white"/>
</clipPath>
</defs>
</svg>
