<svg width="603" height="482" viewBox="0 0 603 482" fill="none" xmlns="http://www.w3.org/2000/svg">
<path d="M559.182 40.8756C501.411 -13.6252 407.76 -13.6252 350.004 40.8756L300.902 87.2239V169.202C300.902 169.202 307.093 161.386 323.658 148.36C344.364 132.078 376.113 143.15 384.396 154.873C399.58 169.202 398.2 193.951 388.537 208.28C354.027 243.488 300.902 291.646 300.902 291.646V386.823V482L559.182 238.278C616.938 183.749 616.938 95.3905 559.182 40.8756Z" fill="#BF0D3E"/>
<path d="M43.3172 40.8756C101.088 -13.6252 194.739 -13.6252 252.495 40.8756L301.597 87.2239V169.202C301.597 169.202 295.406 161.386 278.841 148.36C258.135 132.078 226.386 143.15 218.104 154.873C202.919 169.202 204.299 193.951 213.962 208.28C248.472 243.488 301.597 291.646 301.597 291.646V386.823V482L43.3172 238.278C-14.4389 183.749 -14.4389 95.3905 43.3172 40.8756Z" fill="#041E42"/>
</svg>
